<svg width="350" height="350" viewBox="0 0 350 350" fill="none" xmlns="http://www.w3.org/2000/svg">
<g clip-path="url(#clip0_34_1669)">
<mask id="mask0_34_1669" style="mask-type:luminance" maskUnits="userSpaceOnUse" x="0" y="0" width="350" height="350">
<path d="M350 0H0V350H350V0Z" fill="white"/>
</mask>
<g mask="url(#mask0_34_1669)">
<mask id="mask1_34_1669" style="mask-type:luminance" maskUnits="userSpaceOnUse" x="0" y="0" width="350" height="350">
<path d="M0 0H350V350H0V0Z" fill="white"/>
</mask>
<g mask="url(#mask1_34_1669)">
<path d="M288.669 219.239C294.994 206.584 308.905 178.749 298.345 147.379C298.185 146.905 298.027 146.456 297.863 145.994C294.589 136.791 278.872 96.8187 244.686 94.5842C231.268 93.7073 221.012 99.3109 205.102 108.516C161.324 133.845 165.675 156.172 137.076 164.489C107.462 173.101 87.7749 153.529 67.2911 166.444C55.6199 173.803 48.2806 188.813 52.3371 200.419C58.0314 216.71 83.7794 219.415 83.1247 230.726C82.5903 239.957 65.1746 242.788 65.2388 251.014C65.3156 260.93 90.571 268.116 95.7328 269.589C95.7328 269.589 211.948 272.984 252.017 264.945C264.336 254.519 278.557 239.471 288.669 219.239Z" fill="#CFE6E7"/>
<path d="M291.828 265.687C308.613 235.06 304.377 199.772 280.393 174.762C258.02 151.433 214.244 132.646 174.835 146.898C139.63 159.63 128.901 191.137 127.334 196.027C103.511 191.282 79.5269 202.212 71.9163 220.225C65.1552 236.227 72.5826 254.824 90.3889 264.953C157.535 265.198 224.682 265.442 291.828 265.687Z" fill="#009495"/>
<path d="M295.315 269.333C295.315 275.082 244.556 279.743 181.941 279.743C119.326 279.743 68.5667 275.082 68.5667 269.333C68.5667 263.585 119.326 258.924 181.941 258.924C244.556 258.924 295.315 263.585 295.315 269.333Z" fill="#737691"/>
<path d="M118.105 96.156C118.105 102.083 112.987 106.888 106.674 106.888C100.362 106.888 95.2441 102.083 95.2441 96.156C95.2441 90.2287 100.362 85.424 106.674 85.424C112.987 85.424 118.105 90.2287 118.105 96.156Z" fill="#CFE6E7"/>
<path d="M173.523 83.8185C173.523 76.3289 167.452 70.2573 159.962 70.2573C152.472 70.2573 146.401 76.3289 146.401 83.8185C146.401 91.3082 152.472 97.3797 159.962 97.3797C167.452 97.3797 173.523 91.3082 173.523 83.8185Z" fill="#CFE6E7"/>
<path d="M171.251 83.8185C171.251 77.584 166.197 72.5297 159.962 72.5297C153.728 72.5297 148.673 77.584 148.673 83.8185C148.673 90.0531 153.728 95.1073 159.962 95.1073C166.197 95.1073 171.251 90.0531 171.251 83.8185Z" fill="white"/>
<path d="M152.23 78.7253L159.553 83.6495C159.553 83.6495 162.43 88.287 163.136 89.5346C163.526 90.2236 164.639 89.6898 164.247 88.9984C163.149 87.058 160.482 82.7872 160.482 82.7872L152.918 77.7014C152.259 77.2584 151.569 78.2813 152.23 78.7253Z" fill="#CFE6E7"/>
<path d="M275.124 74.5446C275.124 80.5802 270.231 85.4732 264.195 85.4732C270.231 85.4732 275.124 90.366 275.124 96.4019C275.124 90.366 280.017 85.4732 286.053 85.4732C280.017 85.4732 275.124 80.5802 275.124 74.5446Z" fill="#CFE6E7"/>
<path d="M86.9283 131.65C86.9283 136.345 83.1226 140.151 78.4277 140.151C83.1226 140.151 86.9283 143.957 86.9283 148.652C86.9283 143.957 90.734 140.151 95.4289 140.151C90.734 140.151 86.9283 136.345 86.9283 131.65Z" fill="#CFE6E7"/>
<path d="M211.029 119.19C211.029 121.321 209.302 123.047 207.172 123.047C209.302 123.047 211.029 124.775 211.029 126.905C211.029 124.775 212.756 123.047 214.886 123.047C212.756 123.047 211.029 121.321 211.029 119.19Z" fill="white"/>
<path d="M75.8089 251.2C75.8089 251.2 75.7961 251.104 75.7752 250.924C75.6272 249.663 75.0909 244.319 75.8903 240.08C76.209 238.38 76.7461 236.864 77.5778 235.869C79.1895 233.928 82.3896 232.659 85.1838 231.904C86.5805 231.525 87.8751 231.27 88.8197 231.111C89.2919 231.031 89.6765 230.975 89.9429 230.939C90.209 230.902 90.355 230.887 90.355 230.887L90.3081 230.454C90.301 230.455 87.8995 230.717 85.0705 231.485C82.242 232.256 78.9824 233.517 77.2457 235.59C76.3374 236.682 75.7931 238.261 75.4648 240C74.5354 244.95 75.3795 251.246 75.3797 251.257L75.8089 251.2Z" fill="#005A96"/>
<path d="M78.144 235.358C78.144 235.358 74.8569 229.402 85.9247 228.02C96.9926 226.637 104.141 236.771 104.141 236.771C104.141 236.771 93.146 234.626 91.1818 234.816C86.2004 235.297 79.9139 240.166 78.144 235.358Z" fill="#737691"/>
<path d="M78.0949 217.488C78.0657 217.491 76.4095 217.659 74.669 219.264C72.9272 220.868 71.1235 223.9 70.7714 229.56C70.6736 231.125 70.6859 232.891 70.8405 234.885C71.4727 243.059 71.7618 247.583 71.8925 250.063C71.9576 251.302 71.9833 252.031 71.9926 252.448C71.9973 252.656 71.9982 252.786 71.9979 252.863L71.9962 252.942L71.9956 252.957L71.9955 252.959L72.4265 252.986C72.4275 252.965 72.454 252.526 72.3234 250.04C72.1925 247.554 71.9032 243.028 71.2708 234.852C71.1177 232.876 71.1057 231.13 71.2021 229.588C71.5525 224.007 73.3132 221.105 74.9603 219.585C75.7848 218.824 76.5852 218.408 77.177 218.182C77.4729 218.069 77.7169 218.003 77.8844 217.966C77.9686 217.947 78.0334 217.936 78.0763 217.929L78.1238 217.923L78.1364 217.921L78.0949 217.488Z" fill="#005A96"/>
<path d="M74.7059 220.767C74.7059 220.767 72.4643 216.66 77.335 215.808C82.2049 214.956 88.4919 219.075 88.4919 219.075C88.4919 219.075 76.2584 218.647 74.7059 220.767Z" fill="#007DC5"/>
<path d="M61.8942 215.026C61.8942 215.027 61.9591 215.24 62.0729 215.629C62.4725 216.991 63.4748 220.5 64.3965 224.458C65.3184 228.415 66.1588 232.826 66.2376 235.969C66.2557 236.687 66.2342 237.338 66.1663 237.899C65.9671 239.549 65.9106 241.363 65.9564 243.173C66.0224 245.771 66.2977 248.359 66.6663 250.436C66.851 251.475 67.0584 252.385 67.2763 253.108C67.4968 253.832 67.7166 254.363 67.9702 254.677L68.3031 254.399C68.1242 254.186 67.8983 253.679 67.69 252.981C67.0555 250.88 66.4854 247.022 66.3885 243.162C66.3431 241.369 66.3995 239.573 66.5954 237.951C66.6665 237.361 66.6882 236.691 66.6696 235.958C66.5761 232.295 65.4849 227.041 64.4184 222.69C63.3517 218.341 62.3083 214.902 62.3076 214.899L61.8942 215.026Z" fill="#005A96"/>
<path d="M66.0819 225.751C66.0819 225.751 67.5009 220.792 65.8696 217.448C64.2382 214.105 57.7718 206.068 57.7718 206.068C57.7718 206.068 57.4659 218.284 59.0795 220.934C60.6931 223.584 62.7121 226.975 62.5156 231.387C62.3195 235.799 65.0311 238.058 66.5955 237.784C68.1602 237.511 68.7227 231.769 66.0819 225.751Z" fill="#007DC5"/>
<path d="M51.8035 221.631C51.8035 221.631 51.8331 221.667 51.8903 221.738C52.3212 222.27 54.2787 224.742 56.2092 228.039C58.141 231.335 60.041 235.461 60.3722 239.271C60.4096 239.698 60.4272 240.122 60.4235 240.54C60.4046 242.551 60.4835 244.306 60.6154 245.815C61.0439 250.719 62.0329 253.025 62.0418 253.045L62.4381 252.872L62.4283 252.849C62.3269 252.6 61.4436 250.33 61.0455 245.776C60.9148 244.281 60.8365 242.541 60.8553 240.544C60.8593 240.111 60.8407 239.673 60.8022 239.233C60.4343 235.046 58.2638 230.588 56.1921 227.164C54.1189 223.741 52.1388 221.357 52.1347 221.352L51.8035 221.631Z" fill="#005A96"/>
<path d="M41.264 226.008C41.264 226.008 51.8396 223.824 55.5633 230.737C59.2872 237.649 61.0565 235.421 59.6993 231.817C58.3417 228.212 56.5703 221.126 52.2479 220.269C47.9252 219.412 42.5437 220.616 41.264 226.008Z" fill="#007DC5"/>
<path d="M48.9742 240.943C48.9742 240.943 56.2196 232.479 60.0614 238.237C62.1358 241.257 58.4505 240.264 57.203 239.623C55.9558 238.982 49.7183 239.658 48.9742 240.943Z" fill="#009BDF"/>
<path d="M80.605 246.847H59.3467V245.605H80.605V246.847Z" fill="#263360"/>
<path d="M80.6048 248.941H59.3466V247.7H80.6048V248.941Z" fill="#263360"/>
<path d="M76.6592 266.631H63.2915V265.389H76.6592V266.631Z" fill="#185567"/>
<path d="M80.5118 249.795H69.9755H59.4392C58.9317 255.179 60.5475 260.22 63.2915 265.079H69.9755H76.6592C79.4034 260.22 81.019 255.179 80.5118 249.795Z" fill="#263360"/>
</g>
<mask id="mask2_34_1669" style="mask-type:luminance" maskUnits="userSpaceOnUse" x="45" y="96" width="168" height="201">
<path d="M45.0463 96.5741H212.917V296.204H45.0463V96.5741Z" fill="white"/>
</mask>
<g mask="url(#mask2_34_1669)">
<path d="M111.255 209.469C108.489 216.058 105.723 222.648 102.956 229.238C98.5467 239.744 94.1367 250.25 89.727 260.755C88.7133 263.17 87.6999 265.584 86.6862 267.999C86.1823 269.2 88.1429 269.725 88.6414 268.538C91.4073 261.948 94.1733 255.358 96.9396 248.768C101.349 238.263 105.759 227.757 110.169 217.251C111.182 214.837 112.196 212.422 113.209 210.008C113.714 208.806 111.753 208.282 111.255 209.469Z" fill="#3B424D"/>
<path d="M173.78 268.636C171.146 262.222 168.513 255.809 165.88 249.395C161.655 239.103 157.43 228.811 153.205 218.52C152.235 216.157 151.265 213.794 150.295 211.431C149.806 210.241 147.845 210.762 148.34 211.97C150.973 218.384 153.607 224.798 156.24 231.212C160.465 241.503 164.69 251.795 168.915 262.087C169.885 264.45 170.854 266.813 171.825 269.175C172.313 270.366 174.275 269.845 173.78 268.636Z" fill="#3B424D"/>
<path d="M126.988 212.905V261.916V268.906C126.988 270.21 129.015 270.212 129.015 268.906V219.894V212.905C129.015 211.6 126.988 211.598 126.988 212.905Z" fill="#3B424D"/>
<path d="M109.816 210.758C109.816 210.758 106.543 212.2 107.287 214.674C108.031 217.148 116.249 218.204 121.618 217.722C126.987 217.24 148.261 216.999 148.261 216.999C148.261 216.999 154.496 218.602 154.496 216.638C154.496 214.674 153.773 213.386 153.773 213.386L109.816 210.758Z" fill="#3B424D"/>
<path d="M117.804 205.827C107.472 198.556 105.33 183.81 106.738 170.861C105.011 171.006 103.697 171.233 103.032 171.573C98.9767 173.644 103.032 197.809 103.032 197.809C103.032 197.809 102.823 214.675 115.733 214.675H155.086L155.438 212.559C142.09 212.979 128.599 213.447 117.804 205.827Z" fill="#344882"/>
<path d="M135.097 205.929V171.573C135.097 171.573 115.531 170.127 106.738 170.862C105.33 183.811 107.473 198.556 117.805 205.827C128.599 213.447 142.09 212.979 155.439 212.559L156.544 205.929H135.097Z" fill="#263360"/>
<path d="M154.138 261.611L152.585 270.349L153.803 270.509C153.803 270.509 154.588 266.965 155.075 267.018C155.562 267.071 156.426 269.721 160.348 270.255C164.272 270.79 164.271 270.492 164.271 270.492C164.271 270.492 165.325 269.733 164.269 269.005C163.213 268.276 157.525 263.822 157.389 263.525C157.253 263.228 157.346 261.605 157.346 261.605L154.138 261.611Z" fill="#352D40"/>
<path d="M170.027 202.9C165.448 201.838 163.56 208.285 161.624 214.077C161.502 214.546 157.861 228.587 157.756 231.736C157.65 234.938 153.287 263.423 153.287 263.423L158.033 262.93C158.033 262.93 172.984 221.132 173.951 208.414C173.947 205.508 172.051 203.297 170.027 202.9Z" fill="#1E264D"/>
<path d="M173.904 209.264C174.013 207.843 173.948 206.774 173.669 206.155C171.448 201.234 159.71 198.569 156.618 197.687C153.526 196.805 144.473 192.753 144.473 192.753C144.473 192.753 140.719 191.65 135.639 191.652C130.56 191.653 129.569 199.272 129.792 206.228C130.014 213.184 148.455 213.731 148.455 213.731L161.623 214.058C161.623 214.058 161.622 214.062 161.62 214.07C167.241 214.069 172.661 215.427 173.904 209.264Z" fill="#1E264D"/>
<path d="M138.838 262.925L137.257 271.8L138.474 271.962C138.474 271.962 139.261 268.417 139.748 268.47C140.235 268.524 141.097 271.174 145.02 271.71C148.943 272.246 148.943 271.948 148.943 271.948C148.943 271.948 149.997 271.189 148.941 270.46C147.885 269.731 142.199 265.276 142.063 264.979C141.928 264.681 142.092 262.921 142.092 262.921L138.838 262.925Z" fill="#352D40"/>
<path d="M137.539 212.873C137.558 212.974 137.619 264.721 138.282 264.721L142.532 264.717C142.532 264.717 151.264 219.231 151.668 209.028C151.675 199.557 137.384 200.297 137.539 212.873Z" fill="#263360"/>
<path d="M150.055 213.234C150.866 211.915 151.872 210.414 151.34 206.938C150.468 201.231 128.603 192.016 128.603 192.016L123.744 192.017C123.744 192.017 119.432 199.019 120.651 204.131C121.662 208.369 123.197 209.353 126.952 210.677C130.625 211.972 134.165 212.313 138.021 214.991C141.692 217.54 147.198 216.794 150.055 213.234Z" fill="#263360"/>
<path d="M156.795 195.554C156.795 195.554 159.795 197.978 159.136 200.955C158.477 203.932 155.715 205.849 155.715 205.849C155.715 205.849 153.116 205.414 154.157 203.108C155.198 200.802 154.472 196.927 154.472 196.927L156.795 195.554Z" fill="#FFC099"/>
<path d="M158.158 195.813L154.168 199.298C154.168 199.298 142.78 180.382 143.904 177.928C145.028 175.475 147.383 174.833 149.056 175.522C150.728 176.21 150.869 177.6 151.395 178.579C151.92 179.559 158.158 195.813 158.158 195.813Z" fill="#95A5A5"/>
<path d="M141.054 149.707C141.054 149.707 142.876 149.331 145.653 155.956C147.793 161.062 151.033 174.443 150.623 176.761C150.107 179.683 147.798 181.484 145.18 180.512C142.561 179.541 141.701 169.133 141.236 165.71C140.771 162.288 137.228 151.762 141.054 149.707Z" fill="#95A5A5"/>
<path d="M141.295 149.847C141.295 149.847 145.644 156.249 146.916 158.645C148.189 161.041 152.247 165.941 150.868 168.072C149.488 170.204 144.904 172.927 144.108 176.369C143.313 179.81 147.486 191.85 147.257 192.849C147.027 193.848 128.221 195.534 128.221 195.534L122.59 195.124C122.59 195.124 125.386 179.162 125.124 177.513C124.863 175.864 121.727 156.298 122.649 153.516C123.572 150.734 133.072 147.184 141.295 149.847Z" fill="#CFE6E7"/>
<path d="M137.361 141.149C137.361 141.149 140.091 153.388 138.626 154.252C137.16 155.117 132.171 153.863 131.439 153.219C130.707 152.575 133.176 141.199 133.086 139.822C132.997 138.444 137.361 141.149 137.361 141.149Z" fill="#FFC099"/>
<path d="M140.162 130.455C144.668 128.449 144.24 147.29 139.314 147.312C134.388 147.333 128.456 142.53 128.672 138.585C128.794 136.349 130.167 131.231 133.054 129.768C135.262 128.65 138.934 131.002 140.162 130.455Z" fill="#FFC099"/>
<path d="M141.769 141.07C141.769 141.07 145.383 140.323 145.874 134.361C146.365 128.399 143.842 127.358 142.504 127.824C136.837 122.839 129.923 126.201 129.62 126.474C129.318 126.747 127.503 128.383 126.949 130.496C123.325 130.903 118.64 132.309 120.824 134.787C123.008 137.266 126.47 134.891 126.47 134.891C126.47 134.891 124.552 138.813 125.515 140.457C126.478 142.101 131.401 143.848 131.401 143.848C131.401 143.848 128.185 139.122 129.287 137.764C130.389 136.405 131.639 139.433 131.639 139.433C131.639 139.433 132.381 135.975 132.904 135.834C131.365 134.127 131.125 131.201 134.126 131.116C137.126 131.031 138.9 133.022 138.9 133.022C138.9 133.022 141.778 130.475 142.377 131.676C142.975 132.877 142.249 134.858 141.696 135.716C141.143 136.574 141.654 139.221 141.654 139.221L141.769 141.07Z" fill="#352D40"/>
<path d="M157.903 168.518C157.903 168.518 161.857 166.832 162.132 165.185C162.406 163.538 163.117 165.238 163.175 165.768C163.233 166.297 163.758 166.738 165.013 165.686C166.267 164.634 167.159 164.515 167.087 166.652C167.015 168.788 164.213 171.304 162.276 171.098C160.339 170.892 157.098 171.197 157.098 171.197L157.903 168.518Z" fill="#FFC099"/>
<path d="M141.145 172.539C141.145 172.539 158.788 165.263 159.19 166.446C159.592 167.628 157.04 171.748 158.052 172.569C159.065 173.391 142.496 179.283 141.799 179.518C141.101 179.753 138.193 179.727 137.671 177.964C137.15 176.202 138.223 173.721 141.145 172.539Z" fill="#95A5A5"/>
<path d="M128.596 154.824C128.596 154.824 138.644 167.385 141.82 171.877C144.996 176.369 142.14 179.172 139.938 179.571C137.624 179.99 128.669 167.736 126.536 164.768C122.404 159.021 121.128 153.241 123.204 151.842C125.28 150.443 127.378 153.5 128.596 154.824Z" fill="#95A5A5"/>
</g>
<mask id="mask3_34_1669" style="mask-type:luminance" maskUnits="userSpaceOnUse" x="192" y="73" width="121" height="212">
<path d="M192.176 73.5648H312.083V284.213H192.176V73.5648Z" fill="white"/>
</mask>
<g mask="url(#mask3_34_1669)">
<path d="M282.009 209.793C284.775 216.382 287.541 222.972 290.307 229.562C294.717 240.068 299.127 250.574 303.537 261.079C304.551 263.494 305.564 265.908 306.578 268.323C307.082 269.524 305.121 270.049 304.623 268.862C301.857 262.272 299.091 255.683 296.324 249.092C291.914 238.587 287.505 228.081 283.095 217.575C282.082 215.161 281.068 212.746 280.054 210.332C279.55 209.131 281.511 208.606 282.009 209.793Z" fill="#3B424D"/>
<path d="M219.484 268.961C222.117 262.546 224.75 256.133 227.383 249.719C231.608 239.427 235.833 229.135 240.058 218.844C241.028 216.481 241.998 214.118 242.968 211.755C243.457 210.565 245.419 211.086 244.923 212.294C242.29 218.708 239.657 225.122 237.024 231.536C232.799 241.827 228.574 252.119 224.349 262.411C223.379 264.774 222.409 267.137 221.438 269.499C220.95 270.69 218.988 270.169 219.484 268.961Z" fill="#3B424D"/>
<path d="M266.276 213.229V262.24V269.23C266.276 270.534 264.248 270.536 264.248 269.23V220.218V213.229C264.248 211.924 266.276 211.922 266.276 213.229Z" fill="#3B424D"/>
<path d="M283.448 211.082C283.448 211.082 286.721 212.524 285.977 214.998C285.233 217.472 277.014 218.528 271.645 218.046C266.276 217.564 245.003 217.323 245.003 217.323C245.003 217.323 238.767 218.926 238.767 216.962C238.767 214.998 239.489 213.71 239.489 213.71L283.448 211.082Z" fill="#3B424D"/>
<path d="M272.921 205.739C285.858 198.624 284.045 184.388 283.679 171.029C274.108 170.719 258.167 171.897 258.167 171.897V206.253H236.72L237.078 208.404C249.098 210.871 262.246 211.839 272.921 205.739Z" fill="#263360"/>
<path d="M290.232 171.897C289.236 171.389 286.794 171.13 283.679 171.03C284.044 184.388 285.858 198.624 272.92 205.74C262.246 211.84 249.097 210.871 237.078 208.404L238.177 214.999H277.531C290.44 214.999 290.232 198.133 290.232 198.133C290.232 198.133 294.286 173.968 290.232 171.897Z" fill="#344882"/>
<path d="M231.384 186.786L240.706 173.032C240.706 173.032 243.741 168.247 243.32 164.873C242.899 161.498 239.972 163.417 239.211 164.27C235.066 168.918 228.164 186.901 227.539 187.681C226.914 188.46 225.539 194.694 226.268 194.85C226.998 195.008 230.169 193.001 230.509 191.779C230.849 190.557 231.384 186.786 231.384 186.786Z" fill="#FFAF80"/>
<path d="M253.98 148.758C254.261 145.315 254.116 146.398 254.089 145.763C254.023 144.229 252.831 143.182 250.972 143.595C245.791 144.748 238.321 158.773 237.428 161.116C236.884 162.545 236.985 162.785 236.985 162.785L240.44 166.122L242.121 168.234C242.121 168.234 252.964 157.146 253.386 153.677C253.807 150.207 253.699 152.202 253.98 148.758Z" fill="#FDFDFD"/>
<path d="M253.385 153.682C253.807 150.212 254.119 148.11 254.119 148.11C254.119 148.11 254.086 146.761 254.142 146.19C251.169 155.606 246.976 160.307 240.881 166.899L243.567 169.231C243.567 169.231 252.964 157.152 253.385 153.682Z" fill="#CCCCCC"/>
<path d="M217.401 267.498L202.378 267.499C202.378 267.499 201.525 266.468 203.289 265.599C205.053 264.731 214.063 261.492 214.063 261.492L217.705 261.492C217.705 261.492 218.653 262.288 218.71 262.614C218.767 262.939 218.71 266.576 218.71 266.576C218.71 266.576 218.312 267.498 217.401 267.498Z" fill="#352D40"/>
<path d="M224.898 201.515C231.379 202.563 230.213 209.183 229.493 214.999C229.434 215.479 227.379 229.2 226.433 233.428C225.734 236.555 218.426 263.275 218.426 263.275L214.004 261.757C214.004 261.757 215.45 217.386 219.223 205.203C220.294 202.501 222.87 201.141 224.898 201.515Z" fill="#1E264D"/>
<path d="M219.5 208.98C219.176 207.593 219.076 206.526 219.258 205.871C220.701 200.669 231.895 196.244 234.816 194.9C237.737 193.556 246.066 188.169 246.066 188.169C246.066 188.169 249.608 186.506 254.629 185.733C259.648 184.959 261.791 192.337 262.633 199.246C263.474 206.155 245.333 209.51 245.333 209.51L232.368 211.843C232.368 211.843 232.37 211.848 232.374 211.855C226.818 212.712 221.669 214.881 219.5 208.98Z" fill="#1E264D"/>
<path d="M223.397 261.096C223.397 261.096 219.806 262.802 219.449 262.86C219.092 262.918 211.878 264.582 211.737 264.82C211.596 265.059 211.445 266.287 213.013 266.742C214.581 267.197 225.585 268.66 225.585 268.66C225.585 268.66 226.261 268.085 226.445 267.384C226.629 266.683 227.127 264.433 227.127 264.433L226.637 262.337L223.397 261.096Z" fill="#352D40"/>
<path d="M246.715 209.219C246.654 209.323 234.705 239.272 227.129 263.655C226.901 264.39 222.508 261.976 222.508 261.976C222.508 261.976 231.414 213.644 234.958 202.315C238.648 191.944 251.792 195.512 246.715 209.219Z" fill="#263360"/>
<path d="M235.046 205.939C234.588 204.204 234.416 202.047 236.905 198.817C240.96 193.557 265.01 188.784 265.01 188.784L270.411 190.415C270.411 190.415 272.327 197.354 270.361 202.765C268.637 207.512 265.286 206.884 260.667 207.093C256.147 207.298 251.362 208.558 246.174 210.236C241.236 211.833 237.025 210.846 235.046 205.939Z" fill="#263360"/>
<path d="M262.193 141.751C262.193 141.751 272.344 145.183 272.548 151.305C272.752 157.427 273.103 186.804 272.847 188.541C272.591 190.279 249.595 191.991 247.783 189.38C245.971 186.769 247.182 157.183 248.33 154.002C249.479 150.82 250.037 144.044 254.7 142.787C259.363 141.532 262.193 141.751 262.193 141.751Z" fill="#009495"/>
<path d="M281.827 195.167C281.155 194.063 280.542 192.794 279.98 191.397C274.425 177.59 273.939 151.239 273.18 147.698C273.027 146.988 272.606 146.294 271.988 145.634C269.214 142.669 262.442 140.431 257.964 140.902C252.491 141.477 251.613 143.392 248.627 145.613C245.64 147.834 242.436 171.741 240.465 179.701C238.494 187.661 216.348 198.716 226.225 200.447C233.308 196.838 239.777 193.412 239.777 193.412C239.777 193.412 249.223 190.876 249.178 189.543C249.134 188.209 248.855 163.043 249.478 157.013C250.101 150.983 255.873 144.074 255.873 144.074C259.506 142.421 266.699 143.922 268.302 144.97C269.904 146.018 262.068 148.396 260.362 157.798C256.795 177.466 264.635 190.625 266.535 194.107C268.954 198.539 266.197 219.469 269.207 220.311C273.802 221.486 293.97 232.976 293.942 231.36C293.857 226.267 289.133 207.177 281.827 195.167Z" fill="#F5F5F5"/>
<path d="M266.313 175.529C268.447 182.752 273.041 190.619 280.021 191.417C274.482 177.599 274.001 151.228 273.244 147.684C273.092 146.973 272.671 146.278 272.055 145.618C261.577 151.765 263.608 164.978 266.313 175.529Z" fill="#BFBFBF"/>
<path d="M279.336 174.086C279.336 174.086 265.457 191.227 265.075 191.94C264.692 192.653 260.285 198.288 259.426 198.841C258.567 199.393 255.514 196.967 255.613 196.249C255.713 195.531 256.902 193.459 257.733 193.299C258.563 193.139 258.473 194.597 259.724 194.073C260.974 193.549 265.921 183.085 267.147 181.362C268.374 179.639 272.969 173.818 273.366 173.563C273.435 173.519 273.639 169.581 274.321 169.033C275.88 167.784 278.762 169.358 279.882 169.492C281.063 169.633 279.336 174.086 279.336 174.086Z" fill="#FFAF80"/>
<path d="M269.023 150.277C269.023 150.277 271.83 146.828 274.055 148.613C276.281 150.399 279.926 164.264 280.745 166.665C281.459 168.761 280.962 174.154 280.962 174.154L273.299 172.675C273.299 172.675 267.269 159.802 267.712 156.292C268.154 152.783 269.023 150.277 269.023 150.277Z" fill="#FDFDFD"/>
<path d="M258.326 142.492C258.326 142.492 249.199 144.715 248.451 154.335" stroke="#3C3745" stroke-width="2" stroke-miterlimit="10"/>
<path d="M246.899 155.255C247.14 154.37 248.053 153.848 248.938 154.089C249.824 154.33 250.346 155.243 250.104 156.129C249.863 157.014 248.95 157.536 248.065 157.295C247.18 157.053 246.658 156.14 246.899 155.255Z" fill="#C4B3E0"/>
<path d="M247.551 155.432C247.694 154.907 248.235 154.598 248.76 154.741C249.286 154.884 249.595 155.426 249.452 155.95C249.309 156.476 248.767 156.785 248.242 156.642C247.717 156.499 247.408 155.957 247.551 155.432Z" fill="#3C3745"/>
<path d="M262.927 142.979C262.927 142.979 267.308 143.771 265.663 147.225C264.243 150.205 262.692 151.646 262.692 151.646" stroke="#3C3745" stroke-width="2" stroke-miterlimit="10"/>
<path d="M263.785 160.449C263.785 160.449 267.023 153.168 262.852 151.702C258.861 150.3 258.218 153.444 257.463 160.016" stroke="#3C3745" stroke-width="2" stroke-miterlimit="10"/>
<path d="M263.245 160.576C263.264 160.887 263.531 161.124 263.842 161.105C264.153 161.086 264.39 160.819 264.371 160.508C264.352 160.197 264.085 159.96 263.774 159.979C263.463 159.998 263.226 160.265 263.245 160.576Z" fill="#3C3745"/>
<path d="M256.872 160.286C256.891 160.598 257.159 160.836 257.471 160.816C257.783 160.797 258.02 160.529 258 160.218C257.982 159.906 257.713 159.669 257.402 159.688C257.09 159.707 256.853 159.975 256.872 160.286Z" fill="#3C3745"/>
<path d="M257.002 138.211L257.474 142.656C259.523 142.836 261.734 143.053 263.621 142.704L262.27 137.211L257.002 138.211Z" fill="#EBA27D"/>
<path d="M257.458 142.668L257.846 146.319C257.846 146.319 250.404 151.22 254.322 152.914C258.241 154.608 264.366 145.808 264.366 145.808L263.605 142.716C261.717 143.065 259.507 142.848 257.458 142.668Z" fill="#FFAF80"/>
<path d="M253.536 127.662C253.536 127.662 252.839 135.674 254.125 137.568C255.41 139.461 258.111 141.01 260.951 139.082C263.791 137.154 266.521 133.929 266.196 129.153C265.872 124.377 255.644 120.013 253.536 127.662Z" fill="#FFAF80"/>
<path d="M251.846 123.997C251.846 123.997 247.937 127.038 249.401 128.756C250.864 130.474 247.432 132.634 249.789 132.884C252.145 133.133 254.669 134.814 254.864 131.713C255.06 128.613 254.831 127.433 256.308 126.853C257.785 126.272 260.127 128.762 261.434 127.119C262.74 125.477 265.157 125.491 264.258 128.02C263.358 130.549 263.352 131.625 264.235 131.77C265.118 131.915 263.639 132.849 262.983 134.082C262.327 135.316 261.062 136.453 263.397 136.985C265.732 137.517 266.147 137.166 266.921 135.992C267.694 134.818 268.353 132.936 267.892 131.342C267.43 129.748 267.193 129.924 268.375 129.283C269.558 128.641 272.219 127.125 269.047 125.338C265.876 123.551 265.579 123.844 265.823 122.549C266.066 121.254 265.599 120.485 264.011 120.122C262.421 119.759 260.766 120.515 260.301 119.452C259.836 118.388 256.157 117.069 255.751 118.717C255.345 120.364 254.953 121.776 253.413 120.707C251.872 119.636 251.283 119.574 251.283 119.574C251.283 119.574 249.099 120.091 249.976 121.393C250.852 122.695 247.017 123.255 248.548 123.444C250.08 123.633 251.846 123.997 251.846 123.997Z" fill="#352D40"/>
<path d="M232.66 107.673L238.845 118.415C239.262 119.138 238.54 119.985 237.76 119.687L215.464 111.191C209.658 111.191 204.951 106.485 204.951 100.679V95.608C204.951 89.8019 209.658 85.0954 215.464 85.0954H233.497C239.303 85.0954 244.01 89.8019 244.01 95.608V100.679C244.01 106.485 238.466 107.673 232.66 107.673Z" fill="#009495"/>
<path d="M228.952 91.095L211.786 91.0898V90.1124L228.952 90.1176V91.095Z" fill="#FAFAF4"/>
<path d="M223.34 94.2706L211.687 94.269V93.2916L223.34 93.2932V94.2706Z" fill="#FAFAF4"/>
<path d="M232.649 97.544L211.687 97.5431V96.5657L232.649 96.5666V97.544Z" fill="#FAFAF4"/>
<path d="M225.845 100.82L211.687 100.817V99.8398L225.845 99.8424V100.82Z" fill="#FAFAF4"/>
<path d="M229.573 104.093L211.687 104.092V103.114L229.573 103.115V104.093Z" fill="#FAFAF4"/>
</g>
</g>
</g>
<defs>
<clipPath id="clip0_34_1669">
<rect width="350" height="350" fill="white"/>
</clipPath>
</defs>
</svg>
